<svg viewBox="0 0 24 24" width="16" height="16">
  <path fill="currentColor" d="M2.436 14.563c.893.896 2.489 1.31 5.564 1.414v4.429a2.56 2.56 0 0 0 .736 1.834 2.6 2.6 0 0 0 1.834.76c1.069 0 2.03-.651 2.449-1.658.146-.35.308-.79.516-1.355l.143-.393C14.518 17.289 16.08 13 18 13h3.5a.5.5 0 0 0 .5-.5v-10a.5.5 0 0 0-.5-.5H7.974c-2.817.037-4.364.261-5.536 1.434C1.261 4.609 1.036 6.161 1 9.039c.035 2.81.261 4.353 1.436 5.524M20 11h-2V4h2zM3.852 4.85C4.469 4.232 5.44 4.034 8 4h8v7.656c-2.174 1.482-3.441 5.181-4.343 7.643-.183.494-.343.933-.484 1.275-.275.662-1.179.506-1.173-.15v-6.411L9.013 14c-1.081-.014-4.37-.056-5.16-.85H3.85c-.619-.618-.816-1.591-.85-4.138.033-2.572.23-3.544.852-4.162"></path>
</svg>