<svg viewBox="0 0 24 24" width="16" height="16">
  <path fill="currentColor" d="M21.564 9.437c-.895-.896-2.489-1.31-5.564-1.414V3.594a2.56 2.56 0 0 0-.736-1.834A2.6 2.6 0 0 0 13.429 1c-1.069 0-2.03.651-2.448 1.658-.145.35-.309.79-.516 1.355l-.143.393C9.482 6.711 7.918 11 6 11H2.5a.5.5 0 0 0-.5.5v10a.5.5 0 0 0 .5.5h13.525c2.818-.037 4.365-.261 5.536-1.434 1.177-1.175 1.401-2.727 1.438-5.605-.036-2.81-.261-4.353-1.435-5.524M4 13h2v7H4zm16.148 6.15c-.617.618-1.588.816-4.148.85H8v-7.656c2.174-1.482 3.441-5.181 4.342-7.643.183-.495.342-.932.484-1.275.275-.662 1.18-.506 1.174.15v6.411l.986.013c1.082.014 4.37.056 5.162.85h.002c.618.618.816 1.591.85 4.138-.033 2.572-.231 3.544-.852 4.162"></path>
</svg>